<svg width="24" height="24" viewBox="0 0 24 24" fill="none" xmlns="http://www.w3.org/2000/svg">
<path d="M12 4L13.8095 8.58803C13.9765 9.01154 14.06 9.2233 14.1879 9.40186C14.3013 9.56014 14.4399 9.69872 14.5981 9.81208C14.7767 9.93996 14.9885 10.0235 15.412 10.1905L20 12L15.412 13.8095C14.9885 13.9765 14.7767 14.06 14.5981 14.1879C14.4399 14.3013 14.3013 14.4399 14.1879 14.5981C14.06 14.7767 13.9765 14.9885 13.8095 15.412L12 20L10.1905 15.412C10.0235 14.9885 9.93996 14.7767 9.81208 14.5981C9.69872 14.4399 9.56014 14.3013 9.40186 14.1879C9.2233 14.06 9.01154 13.9765 8.58803 13.8095L4 12L8.58803 10.1905C9.01154 10.0235 9.2233 9.93996 9.40186 9.81208C9.56014 9.69872 9.69872 9.56014 9.81208 9.40186C9.93996 9.2233 10.0235 9.01154 10.1905 8.58803L12 4Z" fill="#FFD971" stroke="#FFD971" stroke-width="1.77778" stroke-linecap="round" stroke-linejoin="round"/>
</svg>
