<svg width="24" height="24" viewBox="0 0 24 24" fill="none" xmlns="http://www.w3.org/2000/svg">
<path d="M19.5098 14.8909L19.5097 14.8908C19.4827 14.8714 19.4563 14.8598 19.4438 14.8546C19.4287 14.8482 19.4142 14.8431 19.4044 14.8398L19.3809 14.8318C19.3808 14.8318 19.3807 14.8317 19.3805 14.8317L12.2289 11.4072V10.6254C12.8757 10.4997 13.3817 10.1964 13.7327 9.75862C14.1183 9.27779 14.3009 8.65505 14.3009 7.97602C14.3009 6.46619 13.3082 5.26177 11.9106 5.26177C10.4689 5.26177 9.28727 6.54024 9.28727 8.02936C9.28727 8.38134 9.55928 8.6951 9.9236 8.6951C10.0405 8.6951 10.1407 8.65723 10.2178 8.61467L10.2184 8.61431C10.4189 8.5027 10.5592 8.28479 10.5592 8.02936C10.5592 7.25929 11.2118 6.59324 11.9244 6.59324C12.5559 6.59324 13.0636 7.13058 13.0636 7.97602C13.0636 8.76849 12.4809 9.35878 11.6727 9.35878C11.2912 9.35878 11.0589 9.69162 11.0589 10.0245V10.86V11.5691L4.19327 15.0845C3.06142 15.5321 2.65565 16.5551 2.7849 17.3564C2.91998 18.1945 3.58554 18.7382 4.42694 18.7382H18.3127C19.2739 18.7382 20.0502 18.1911 20.3076 17.27C20.5567 16.3801 20.2349 15.4144 19.5098 14.8909ZM19.0934 16.946L19.0933 16.9461C18.9978 17.2889 18.7258 17.5105 18.313 17.5105H4.42694C4.29965 17.5105 4.21052 17.473 4.15079 17.4222C4.09074 17.3711 4.04496 17.2933 4.02754 17.1857C3.99002 16.9525 4.12466 16.5441 4.67132 16.3287L4.68232 16.3244L4.69283 16.319L11.823 12.6574L18.8303 16.0376C19.071 16.2373 19.1873 16.6099 19.0934 16.946Z" fill="#FFD971" stroke="#FFD971" stroke-width="0.476466"/>
</svg>
