<svg width="296" height="128" viewBox="0 0 296 128" fill="none" xmlns="http://www.w3.org/2000/svg">
<path d="M73.9839 58.4783C74.6517 59.4429 74.8743 60.9641 74.6517 63.0418C74.5033 65.0452 74.1323 67.2342 73.5387 69.6087C72.9451 71.909 72.2401 74.2093 71.4239 76.5096C70.6077 78.7357 69.9399 80.5908 69.4204 82.0748C68.159 85.4881 67.0459 88.6789 66.0813 91.647C65.1167 94.6151 63.9665 97.88 62.6309 101.442C62.1857 102.481 61.7404 103.519 61.2952 104.558C60.9242 105.597 60.4419 106.525 59.8483 107.341C59.3288 108.157 58.661 108.825 57.8448 109.344C57.1027 109.864 56.1752 110.124 55.0622 110.124C53.8007 110.124 52.6877 109.678 51.723 108.788C50.8326 107.897 50.0535 106.784 49.3856 105.449C48.792 104.113 48.2726 102.703 47.8274 101.219C47.3822 99.7351 47.0112 98.4366 46.7143 97.3235C45.7497 94.0586 44.8964 91.0905 44.1543 88.4192C43.4123 85.6737 42.7445 83.225 42.1509 81.0731C41.483 83.225 40.8152 85.5623 40.1474 88.0852C39.4796 90.6081 38.6262 93.465 37.5874 96.6557C37.2906 97.7687 36.9196 99.1415 36.4743 100.774C36.0291 102.332 35.4726 103.816 34.8048 105.226C34.2112 106.636 33.432 107.823 32.4674 108.788C31.5769 109.827 30.501 110.272 29.2396 110.124C27.4587 110.049 25.9004 109.344 24.5648 108.009C23.3033 106.599 22.1903 104.929 21.2256 103C20.3352 101.071 19.5561 99.0673 18.8883 96.9896C18.2204 94.9119 17.6639 93.0939 17.2187 91.5357C16.6251 89.5322 15.9201 87.3061 15.1039 84.8574C14.2877 82.4087 13.4714 79.9229 12.6552 77.4C11.9132 74.8029 11.2083 72.2429 10.5404 69.72C9.8726 67.1229 9.42738 64.7484 9.20477 62.5965C9.05637 61.1867 9.31608 59.8881 9.98391 58.7009C10.7259 57.5136 11.6535 56.6974 12.7665 56.2522C13.9538 55.7328 15.2152 55.6215 16.5509 55.9183C17.9607 56.2151 19.2222 57.1055 20.3352 58.5896C20.9288 59.3316 21.4483 60.2592 21.8935 61.3722C22.4129 62.4852 22.8581 63.7096 23.2291 65.0452C23.6001 66.3067 23.9712 67.6052 24.3422 68.9409C24.7132 70.2765 25.0842 71.5751 25.4552 72.8365C26.2714 75.6563 26.9393 77.8823 27.4587 79.5148C28.0523 81.0731 28.6459 82.7055 29.2396 84.4122C29.759 82.7055 30.2784 81.0731 30.7978 79.5148C31.3914 77.8823 32.0964 75.6563 32.9126 72.8365C33.2094 71.9461 33.5433 70.9444 33.9143 69.8313C34.3596 68.6441 34.8048 67.531 35.25 66.4922C35.7694 65.4534 36.3259 64.4887 36.9196 63.5983C37.5874 62.6336 38.2923 61.9287 39.0343 61.4835C40.6668 60.3705 42.1509 60.1108 43.4865 60.7044C44.8222 61.2238 45.9723 62.1513 46.937 63.487C47.9016 64.8226 48.7178 66.3809 49.3856 68.1618C50.1277 69.8684 50.7213 71.4267 51.1665 72.8365C51.6117 74.3206 52.0199 75.6192 52.3909 76.7322C52.7619 77.771 53.0958 78.7357 53.3926 79.6261C53.6894 80.5165 53.9491 81.3699 54.1717 82.1861C54.4685 83.0023 54.7654 83.8557 55.0622 84.7461C55.359 83.8557 55.6187 83.0023 55.8413 82.1861C56.1381 81.3699 56.4349 80.5165 56.7317 79.6261C57.0285 78.7357 57.3625 77.771 57.7335 76.7322C58.1045 75.6192 58.5126 74.3206 58.9578 72.8365C59.2546 71.8719 59.5514 70.7589 59.8483 69.4974C60.2193 68.236 60.5903 66.9745 60.9613 65.7131C61.3323 64.3774 61.7033 63.116 62.0743 61.9287C62.5196 60.7415 63.0019 59.7397 63.5213 58.9235C64.0407 58.1073 64.7456 57.4394 65.6361 56.92C66.5265 56.3264 67.4541 55.9925 68.4187 55.9183C69.3833 55.7699 70.348 55.8812 71.3126 56.2522C72.3514 56.6232 73.2419 57.3652 73.9839 58.4783ZM129.513 82.0748C129.365 84.5235 129.217 87.0093 129.068 89.5322C128.92 91.9809 128.512 94.3554 127.844 96.6557C127.25 98.956 126.286 101.034 124.95 102.889C123.689 104.744 121.871 106.228 119.496 107.341C117.418 108.38 115.192 109.085 112.818 109.456C110.443 109.901 108.069 110.086 105.694 110.012C103.32 109.938 101.02 109.567 98.7935 108.899C96.5674 108.306 94.5639 107.452 92.783 106.339C91.0022 105.226 89.5552 103.779 88.4422 101.998C87.3291 100.217 86.4387 98.2881 85.7709 96.2105C85.1772 94.1328 84.7691 91.9809 84.5465 89.7548C84.3239 87.5287 84.1755 85.451 84.1013 83.5218C83.8045 78.4018 83.8045 73.356 84.1013 68.3844C84.1013 67.4197 84.1013 66.3438 84.1013 65.1565C84.1013 63.8951 84.1755 62.6708 84.3239 61.4835C84.5465 60.2963 84.8804 59.2203 85.3256 58.2557C85.7709 57.2168 86.5129 56.4377 87.5517 55.9183C89.7778 54.731 91.8184 54.6568 93.6735 55.6957C95.6027 56.7345 96.7529 58.8864 97.1239 62.1513C97.3465 63.858 97.4207 65.7502 97.3465 67.8279C97.3465 69.9055 97.4207 71.7977 97.5691 73.5044C97.6433 76.0273 97.7175 78.7728 97.7917 81.7409C97.8659 84.6348 98.2741 87.2319 99.0161 89.5322C99.8323 91.8325 101.131 93.5763 102.912 94.7635C104.767 95.8765 107.512 95.9137 111.148 94.8748C112.855 94.3554 113.968 93.0568 114.487 90.9792C115.081 88.9015 115.378 85.8221 115.378 81.7409C115.378 79.96 115.341 77.9937 115.267 75.8418C115.192 73.6899 115.155 71.5751 115.155 69.4974C115.155 67.3455 115.192 65.3792 115.267 63.5983C115.415 61.7432 115.638 60.3334 115.934 59.3687C116.305 58.0331 117.084 57.0313 118.272 56.3635C119.459 55.6957 120.72 55.3618 122.056 55.3618C123.392 55.2876 124.653 55.5473 125.84 56.1409C127.028 56.7345 127.844 57.6992 128.289 59.0348C128.734 60.2221 129.031 61.7432 129.18 63.5983C129.402 65.3792 129.551 67.3455 129.625 69.4974C129.699 71.5751 129.699 73.727 129.625 75.9531C129.625 78.105 129.588 80.1455 129.513 82.0748ZM188.189 59.8139C188.486 60.7044 188.56 61.7061 188.412 62.8192C188.263 63.9322 188.004 65.0823 187.633 66.2696C187.262 67.3826 186.816 68.4957 186.297 69.6087C185.852 70.6476 185.444 71.5751 185.073 72.3913C183.143 76.3241 181.325 80.1826 179.619 83.967C177.912 87.7513 175.909 91.8696 173.608 96.3218C173.163 97.2122 172.644 98.2881 172.05 99.5496C171.531 100.737 170.937 101.924 170.269 103.111C169.601 104.224 168.859 105.263 168.043 106.228C167.301 107.192 166.485 107.897 165.594 108.343C164.852 108.788 164.11 108.973 163.368 108.899C162.775 109.048 162.107 108.862 161.365 108.343C160.474 107.897 159.621 107.192 158.805 106.228C158.063 105.263 157.358 104.224 156.69 103.111C156.022 101.924 155.391 100.737 154.798 99.5496C154.278 98.2881 153.796 97.2122 153.351 96.3218C152.46 94.6151 151.607 93.0197 150.791 91.5357C150.049 90.0516 149.233 88.4563 148.342 86.7496C147.526 84.9687 146.598 82.9652 145.56 80.7392C144.521 78.4389 143.296 75.6563 141.887 72.3913C141.515 71.5009 141.107 70.5734 140.662 69.6087C140.217 68.6441 139.809 67.6052 139.438 66.4922C139.141 65.3792 138.918 64.2661 138.77 63.1531C138.696 61.9658 138.77 60.7786 138.993 59.5913C139.215 58.4783 139.772 57.5879 140.662 56.92C141.553 56.2522 142.554 55.807 143.667 55.5844C144.78 55.3618 145.893 55.3989 147.007 55.6957C148.12 55.9183 149.01 56.4006 149.678 57.1426C150.346 57.8105 150.976 58.7009 151.57 59.8139C152.164 60.927 152.72 62.1142 153.24 63.3757C153.833 64.5629 154.353 65.7873 154.798 67.0487C155.317 68.236 155.8 69.2748 156.245 70.1652C157.284 72.3171 158.434 74.6545 159.695 77.1774C161.031 79.7003 162.218 82.0377 163.257 84.1896C163.999 82.4829 164.667 81.0731 165.26 79.96C165.854 78.7728 166.411 77.6226 166.93 76.5096C167.524 75.3965 168.117 74.1722 168.711 72.8365C169.379 71.5009 170.195 69.7942 171.16 67.7165C172.05 65.7873 172.94 63.8951 173.831 62.04C174.796 60.185 175.946 58.5525 177.281 57.1426C177.949 56.4006 178.802 55.9183 179.841 55.6957C180.88 55.3989 181.956 55.3618 183.069 55.5844C184.182 55.807 185.184 56.2893 186.074 57.0313C187.039 57.6992 187.744 58.6267 188.189 59.8139ZM243.209 82.0748C243.061 84.5235 242.912 87.0093 242.764 89.5322C242.616 91.9809 242.207 94.3554 241.54 96.6557C240.946 98.956 239.981 101.034 238.646 102.889C237.384 104.744 235.566 106.228 233.192 107.341C231.114 108.38 228.888 109.085 226.513 109.456C224.139 109.901 221.764 110.086 219.39 110.012C217.016 109.938 214.715 109.567 212.489 108.899C210.263 108.306 208.26 107.452 206.479 106.339C204.698 105.226 203.251 103.779 202.138 101.998C201.025 100.217 200.134 98.2881 199.467 96.2105C198.873 94.1328 198.465 91.9809 198.242 89.7548C198.02 87.5287 197.871 85.451 197.797 83.5218C197.5 78.4018 197.5 73.356 197.797 68.3844C197.797 67.4197 197.797 66.3438 197.797 65.1565C197.797 63.8951 197.871 62.6708 198.02 61.4835C198.242 60.2963 198.576 59.2203 199.021 58.2557C199.467 57.2168 200.209 56.4377 201.247 55.9183C203.473 54.731 205.514 54.6568 207.369 55.6957C209.298 56.7345 210.449 58.8864 210.82 62.1513C211.042 63.858 211.116 65.7502 211.042 67.8279C211.042 69.9055 211.116 71.7977 211.265 73.5044C211.339 76.0273 211.413 78.7728 211.487 81.7409C211.562 84.6348 211.97 87.2319 212.712 89.5322C213.528 91.8325 214.827 93.5763 216.607 94.7635C218.462 95.8765 221.208 95.9137 224.844 94.8748C226.551 94.3554 227.664 93.0568 228.183 90.9792C228.777 88.9015 229.073 85.8221 229.073 81.7409C229.073 79.96 229.036 77.9937 228.962 75.8418C228.888 73.6899 228.851 71.5751 228.851 69.4974C228.851 67.3455 228.888 65.3792 228.962 63.5983C229.111 61.7432 229.333 60.3334 229.63 59.3687C230.001 58.0331 230.78 57.0313 231.967 56.3635C233.155 55.6957 234.416 55.3618 235.752 55.3618C237.087 55.2876 238.349 55.5473 239.536 56.1409C240.723 56.7345 241.54 57.6992 241.985 59.0348C242.43 60.2221 242.727 61.7432 242.875 63.5983C243.098 65.3792 243.246 67.3455 243.32 69.4974C243.395 71.5751 243.395 73.727 243.32 75.9531C243.32 78.105 243.283 80.1455 243.209 82.0748Z" fill="white"/>
<path d="M260.641 16.6957L265.676 29.4624C266.141 30.6408 266.374 31.2301 266.729 31.727C267.045 32.1674 267.431 32.553 267.871 32.8684C268.368 33.2243 268.957 33.4567 270.136 33.9214L282.902 38.9565L270.136 43.9917C268.957 44.4564 268.368 44.6888 267.871 45.0447C267.431 45.3601 267.045 45.7457 266.729 46.1861C266.374 46.683 266.141 47.2723 265.676 48.4507L260.641 61.2174L255.606 48.4507C255.141 47.2723 254.909 46.683 254.553 46.1861C254.238 45.7457 253.852 45.3601 253.412 45.0447C252.915 44.6888 252.326 44.4564 251.147 43.9917L238.38 38.9565L251.147 33.9214C252.326 33.4567 252.915 33.2243 253.412 32.8684C253.852 32.553 254.238 32.1674 254.553 31.727C254.909 31.2301 255.141 30.6408 255.606 29.4624L260.641 16.6957Z" fill="white" stroke="white" stroke-width="4.94686" stroke-linecap="round" stroke-linejoin="round"/>
</svg>
