<svg width="295" height="128" viewBox="0 0 295 128" fill="none" xmlns="http://www.w3.org/2000/svg">
<path d="M73.5166 58.4783C74.1844 59.4429 74.407 60.9641 74.1844 63.0418C74.036 65.0452 73.665 67.2342 73.0713 69.6087C72.4777 71.909 71.7728 74.2093 70.9566 76.5096C70.1403 78.7357 69.4725 80.5908 68.9531 82.0748C67.6916 85.4881 66.5786 88.6789 65.614 91.647C64.6493 94.6151 63.4992 97.88 62.1635 101.442C61.7183 102.481 61.2731 103.519 60.8279 104.558C60.4569 105.597 59.9745 106.525 59.3809 107.341C58.8615 108.157 58.1937 108.825 57.3774 109.344C56.6354 109.864 55.7079 110.124 54.5948 110.124C53.3334 110.124 52.2203 109.678 51.2557 108.788C50.3653 107.897 49.5861 106.784 48.9183 105.449C48.3247 104.113 47.8053 102.703 47.36 101.219C46.9148 99.7351 46.5438 98.4366 46.247 97.3235C45.2824 94.0586 44.429 91.0905 43.687 88.4192C42.945 85.6737 42.2771 83.225 41.6835 81.0731C41.0157 83.225 40.3479 85.5623 39.68 88.0852C39.0122 90.6081 38.1589 93.465 37.12 96.6557C36.8232 97.7687 36.4522 99.1415 36.007 100.774C35.5618 102.332 35.0053 103.816 34.3374 105.226C33.7438 106.636 32.9647 107.823 32 108.788C31.1096 109.827 30.0337 110.272 28.7722 110.124C26.9913 110.049 25.4331 109.344 24.0974 108.009C22.836 106.599 21.7229 104.929 20.7583 103C19.8679 101.071 19.0887 99.0673 18.4209 96.9896C17.7531 94.9119 17.1966 93.0939 16.7513 91.5357C16.1577 89.5322 15.4528 87.3061 14.6366 84.8574C13.8203 82.4087 13.0041 79.9229 12.1879 77.4C11.4458 74.8029 10.7409 72.2429 10.0731 69.72C9.40526 67.1229 8.96004 64.7484 8.73743 62.5965C8.58902 61.1867 8.84873 59.8881 9.51656 58.7009C10.2586 57.5136 11.1861 56.6974 12.2992 56.2522C13.4864 55.7328 14.7479 55.6215 16.0835 55.9183C17.4934 56.2151 18.7548 57.1055 19.8679 58.5896C20.4615 59.3316 20.9809 60.2592 21.4261 61.3722C21.9455 62.4852 22.3908 63.7096 22.7618 65.0452C23.1328 66.3067 23.5038 67.6052 23.8748 68.9409C24.2458 70.2765 24.6169 71.5751 24.9879 72.8365C25.8041 75.6563 26.4719 77.8823 26.9913 79.5148C27.585 81.0731 28.1786 82.7055 28.7722 84.4122C29.2916 82.7055 29.8111 81.0731 30.3305 79.5148C30.9241 77.8823 31.629 75.6563 32.4453 72.8365C32.7421 71.9461 33.076 70.9444 33.447 69.8313C33.8922 68.6441 34.3374 67.531 34.7826 66.4922C35.3021 65.4534 35.8586 64.4887 36.4522 63.5983C37.12 62.6336 37.825 61.9287 38.567 61.4835C40.1995 60.3705 41.6835 60.1108 43.0192 60.7044C44.3548 61.2238 45.505 62.1513 46.4696 63.487C47.4342 64.8226 48.2505 66.3809 48.9183 68.1618C49.6603 69.8684 50.254 71.4267 50.6992 72.8365C51.1444 74.3206 51.5525 75.6192 51.9235 76.7322C52.2945 77.771 52.6284 78.7357 52.9253 79.6261C53.2221 80.5165 53.4818 81.3699 53.7044 82.1861C54.0012 83.0023 54.298 83.8557 54.5948 84.7461C54.8916 83.8557 55.1513 83.0023 55.374 82.1861C55.6708 81.3699 55.9676 80.5165 56.2644 79.6261C56.5612 78.7357 56.8951 77.771 57.2661 76.7322C57.6371 75.6192 58.0453 74.3206 58.4905 72.8365C58.7873 71.8719 59.0841 70.7589 59.3809 69.4974C59.7519 68.236 60.1229 66.9745 60.494 65.7131C60.865 64.3774 61.236 63.116 61.607 61.9287C62.0522 60.7415 62.5345 59.7397 63.054 58.9235C63.5734 58.1073 64.2783 57.4394 65.1687 56.92C66.0592 56.3264 66.9867 55.9925 67.9513 55.9183C68.916 55.7699 69.8806 55.8812 70.8453 56.2522C71.8841 56.6232 72.7745 57.3652 73.5166 58.4783ZM129.046 82.0748C128.898 84.5235 128.749 87.0093 128.601 89.5322C128.453 91.9809 128.044 94.3554 127.377 96.6557C126.783 98.956 125.818 101.034 124.483 102.889C123.221 104.744 121.403 106.228 119.029 107.341C116.951 108.38 114.725 109.085 112.35 109.456C109.976 109.901 107.601 110.086 105.227 110.012C102.853 109.938 100.552 109.567 98.3261 108.899C96.1 108.306 94.0966 107.452 92.3157 106.339C90.5348 105.226 89.0879 103.779 87.9748 101.998C86.8618 100.217 85.9713 98.2881 85.3035 96.2105C84.7099 94.1328 84.3018 91.9809 84.0792 89.7548C83.8566 87.5287 83.7082 85.451 83.6339 83.5218C83.3371 78.4018 83.3371 73.356 83.6339 68.3844C83.6339 67.4197 83.6339 66.3438 83.6339 65.1565C83.6339 63.8951 83.7082 62.6708 83.8566 61.4835C84.0792 60.2963 84.4131 59.2203 84.8583 58.2557C85.3035 57.2168 86.0455 56.4377 87.0844 55.9183C89.3105 54.731 91.3511 54.6568 93.2061 55.6957C95.1354 56.7345 96.2855 58.8864 96.6566 62.1513C96.8792 63.858 96.9534 65.7502 96.8792 67.8279C96.8792 69.9055 96.9534 71.7977 97.1018 73.5044C97.176 76.0273 97.2502 78.7728 97.3244 81.7409C97.3986 84.6348 97.8067 87.2319 98.5487 89.5322C99.365 91.8325 100.664 93.5763 102.444 94.7635C104.299 95.8765 107.045 95.9137 110.681 94.8748C112.388 94.3554 113.501 93.0568 114.02 90.9792C114.614 88.9015 114.91 85.8221 114.91 81.7409C114.91 79.96 114.873 77.9937 114.799 75.8418C114.725 73.6899 114.688 71.5751 114.688 69.4974C114.688 67.3455 114.725 65.3792 114.799 63.5983C114.948 61.7432 115.17 60.3334 115.467 59.3687C115.838 58.0331 116.617 57.0313 117.804 56.3635C118.992 55.6957 120.253 55.3618 121.589 55.3618C122.924 55.2876 124.186 55.5473 125.373 56.1409C126.56 56.7345 127.377 57.6992 127.822 59.0348C128.267 60.2221 128.564 61.7432 128.712 63.5983C128.935 65.3792 129.083 67.3455 129.157 69.4974C129.232 71.5751 129.232 73.727 129.157 75.9531C129.157 78.105 129.12 80.1455 129.046 82.0748ZM187.722 59.8139C188.019 60.7044 188.093 61.7061 187.944 62.8192C187.796 63.9322 187.536 65.0823 187.165 66.2696C186.794 67.3826 186.349 68.4957 185.83 69.6087C185.384 70.6476 184.976 71.5751 184.605 72.3913C182.676 76.3241 180.858 80.1826 179.151 83.967C177.445 87.7513 175.441 91.8696 173.141 96.3218C172.696 97.2122 172.176 98.2881 171.583 99.5496C171.063 100.737 170.47 101.924 169.802 103.111C169.134 104.224 168.392 105.263 167.576 106.228C166.834 107.192 166.017 107.897 165.127 108.343C164.385 108.788 163.643 108.973 162.901 108.899C162.307 109.048 161.639 108.862 160.897 108.343C160.007 107.897 159.154 107.192 158.337 106.228C157.595 105.263 156.89 104.224 156.223 103.111C155.555 101.924 154.924 100.737 154.33 99.5496C153.811 98.2881 153.329 97.2122 152.884 96.3218C151.993 94.6151 151.14 93.0197 150.324 91.5357C149.581 90.0516 148.765 88.4563 147.875 86.7496C147.059 84.9687 146.131 82.9652 145.092 80.7392C144.053 78.4389 142.829 75.6563 141.419 72.3913C141.048 71.5009 140.64 70.5734 140.195 69.6087C139.75 68.6441 139.341 67.6052 138.97 66.4922C138.674 65.3792 138.451 64.2661 138.303 63.1531C138.228 61.9658 138.303 60.7786 138.525 59.5913C138.748 58.4783 139.304 57.5879 140.195 56.92C141.085 56.2522 142.087 55.807 143.2 55.5844C144.313 55.3618 145.426 55.3989 146.539 55.6957C147.652 55.9183 148.543 56.4006 149.21 57.1426C149.878 57.8105 150.509 58.7009 151.103 59.8139C151.696 60.927 152.253 62.1142 152.772 63.3757C153.366 64.5629 153.885 65.7873 154.33 67.0487C154.85 68.236 155.332 69.2748 155.777 70.1652C156.816 72.3171 157.966 74.6545 159.228 77.1774C160.564 79.7003 161.751 82.0377 162.79 84.1896C163.532 82.4829 164.199 81.0731 164.793 79.96C165.387 78.7728 165.943 77.6226 166.463 76.5096C167.056 75.3965 167.65 74.1722 168.244 72.8365C168.911 71.5009 169.728 69.7942 170.692 67.7165C171.583 65.7873 172.473 63.8951 173.364 62.04C174.328 60.185 175.478 58.5525 176.814 57.1426C177.482 56.4006 178.335 55.9183 179.374 55.6957C180.413 55.3989 181.489 55.3618 182.602 55.5844C183.715 55.807 184.717 56.2893 185.607 57.0313C186.572 57.6992 187.277 58.6267 187.722 59.8139ZM242.742 82.0748C242.593 84.5235 242.445 87.0093 242.297 89.5322C242.148 91.9809 241.74 94.3554 241.072 96.6557C240.479 98.956 239.514 101.034 238.178 102.889C236.917 104.744 235.099 106.228 232.724 107.341C230.647 108.38 228.421 109.085 226.046 109.456C223.672 109.901 221.297 110.086 218.923 110.012C216.548 109.938 214.248 109.567 212.022 108.899C209.796 108.306 207.792 107.452 206.011 106.339C204.23 105.226 202.784 103.779 201.67 101.998C200.557 100.217 199.667 98.2881 198.999 96.2105C198.406 94.1328 197.997 91.9809 197.775 89.7548C197.552 87.5287 197.404 85.451 197.33 83.5218C197.033 78.4018 197.033 73.356 197.33 68.3844C197.33 67.4197 197.33 66.3438 197.33 65.1565C197.33 63.8951 197.404 62.6708 197.552 61.4835C197.775 60.2963 198.109 59.2203 198.554 58.2557C198.999 57.2168 199.741 56.4377 200.78 55.9183C203.006 54.731 205.047 54.6568 206.902 55.6957C208.831 56.7345 209.981 58.8864 210.352 62.1513C210.575 63.858 210.649 65.7502 210.575 67.8279C210.575 69.9055 210.649 71.7977 210.797 73.5044C210.872 76.0273 210.946 78.7728 211.02 81.7409C211.094 84.6348 211.502 87.2319 212.244 89.5322C213.061 91.8325 214.359 93.5763 216.14 94.7635C217.995 95.8765 220.741 95.9137 224.377 94.8748C226.083 94.3554 227.196 93.0568 227.716 90.9792C228.309 88.9015 228.606 85.8221 228.606 81.7409C228.606 79.96 228.569 77.9937 228.495 75.8418C228.421 73.6899 228.384 71.5751 228.384 69.4974C228.384 67.3455 228.421 65.3792 228.495 63.5983C228.643 61.7432 228.866 60.3334 229.163 59.3687C229.534 58.0331 230.313 57.0313 231.5 56.3635C232.687 55.6957 233.949 55.3618 235.284 55.3618C236.62 55.2876 237.881 55.5473 239.069 56.1409C240.256 56.7345 241.072 57.6992 241.517 59.0348C241.963 60.2221 242.259 61.7432 242.408 63.5983C242.63 65.3792 242.779 67.3455 242.853 69.4974C242.927 71.5751 242.927 73.727 242.853 75.9531C242.853 78.105 242.816 80.1455 242.742 82.0748Z" fill="#FFD971"/>
<path d="M260.174 16.6957L265.209 29.4624C265.674 30.6408 265.906 31.2301 266.262 31.727C266.578 32.1674 266.963 32.553 267.404 32.8684C267.9 33.2243 268.49 33.4567 269.668 33.9214L282.435 38.9565L269.668 43.9917C268.49 44.4564 267.9 44.6888 267.404 45.0447C266.963 45.3601 266.578 45.7457 266.262 46.1861C265.906 46.683 265.674 47.2723 265.209 48.4507L260.174 61.2174L255.139 48.4507C254.674 47.2723 254.442 46.683 254.086 46.1861C253.77 45.7457 253.385 45.3601 252.944 45.0447C252.447 44.6888 251.858 44.4564 250.68 43.9917L237.913 38.9565L250.68 33.9214C251.858 33.4567 252.447 33.2243 252.944 32.8684C253.385 32.553 253.77 32.1674 254.086 31.727C254.442 31.2301 254.674 30.6408 255.139 29.4624L260.174 16.6957Z" fill="#FFD971" stroke="#FFD971" stroke-width="4.94686" stroke-linecap="round" stroke-linejoin="round"/>
</svg>
